Title                            : Whiteout
Year                             : 2009
Genre                            : Action | Crime | Drama | Mystery | Thriller
iMDB URL                         : http://www.imdb.com/title/tt0365929

Complete name                    : Whiteout.2009.BRRIP.H264-ZEKTORM.mp4
Format                           : MPEG-4
Format profile                   : Base Media
Codec ID                         : isom
File size                        : 701 MiB
Duration                         : 1h 40mn
Overall bit rate                 : 973 Kbps
Subtitles                        : English, Spanish, French (Format: VobSub)

Video
Format                           : AVC
Format/Info                      : Advanced Video Codec
Format profile                   : High@L4.1
Format settings, CABAC           : Yes
Format settings, ReFrames        : 8 frames
Codec ID                         : avc1
Codec ID/Info                    : Advanced Video Coding
Duration                         : 1h 40mn
Bit rate mode                    : Variable
Bit rate                         : 886 Kbps
Maximum bit rate                 : 9136 Kbps
Width                            : 816 pixels
Height                           : 336 pixels
Display aspect ratio             : 2.429
Frame rate mode                  : Constant
Frame rate                       : 23.976 fps
Resolution                       : 24 bits
Colorimetry                      : 4:2:0
Scan type                        : Progressive
Bits/(Pixel*Frame)               : 0.135
Stream size                      : 638 MiB (91%)
Title                            : Video
Writing library                  : x264

Audio
Format                           : AAC
Format/Info                      : Advanced Audio Codec
Format version                   : Version 4
Format profile                   : LC
Format settings, SBR             : Yes
Format settings, PS              : No
Codec ID                         : 40
Duration                         : 1h 40mn
Bit rate mode                    : Variable
Bit rate                         : 84.0 Kbps
Maximum bit rate                 : 106 Kbps
Channel(s)                       : 2 channels
Channel positions                : L R
Sampling rate                    : 48.0 KHz
Resolution                       : 16 bits
Stream size                      : 60.5 MiB (9%)
Title                            : English
Language                         : English
